<?xml version="1.0" encoding="utf-8"?>
<!-- Generator: Adobe Illustrator 26.3.1, SVG Export Plug-In . SVG Version: 6.00 Build 0)  -->
<svg version="1.1" id="Livello_1" xmlns="http://www.w3.org/2000/svg" xmlns:xlink="http://www.w3.org/1999/xlink" x="0px" y="0px"
	 viewBox="0 0 285.3 108.7" style="enable-background:new 0 0 285.3 108.7;" xml:space="preserve">
<style type="text/css">
	.st0{font-family:'Arial-BoldMT';}
	.st1{font-size:30px;}
	.st2{letter-spacing:1;}
	.st3{font-family:'ArialMT';}
	.st4{font-size:17px;}
	.st5{clip-path:url(#SVGID_00000080900239394605401450000009588413312620306618_);}
	.st6{clip-path:url(#SVGID_00000109732995400611309690000015270393181855724726_);}
</style>
<text transform="matrix(1 0 0 1 116.9774 46.3673)" class="st0 st1 st2">E</text>
<text transform="matrix(1 0 0 1 135.3374 46.3673)" class="st0 st1"> </text>
<text transform="matrix(1 0 0 1 141.9974 46.3673)" class="st0 st1 st2">TI</text>
<text transform="matrix(1 0 0 1 169.5974 46.3673)" class="st0 st1"> </text>
<text transform="matrix(1 0 0 1 176.2574 46.3673)" class="st0 st1 st2">VE</text>
<text transform="matrix(1 0 0 1 215.2574 46.3673)" class="st0 st1 st2">NG</text>
<text transform="matrix(1 0 0 1 260.6475 46.3673)" class="st0 st1">O</text>
<text transform="matrix(1 0 0 1 116.9774 72.3773)" class="st0 st1">A</text>
<text transform="matrix(1 0 0 1 137.5275 72.3773)" class="st0 st1"> </text>
<text transform="matrix(1 0 0 1 144.0375 72.3773)" class="st0 st1">C</text>
<text transform="matrix(1 0 0 1 166.0874 72.3773)" class="st0 st1">E</text>
<text transform="matrix(1 0 0 1 184.0275 72.3773)" class="st0 st1">R</text>
<text transform="matrix(1 0 0 1 203.8574 72.3773)" class="st0 st1">C</text>
<text transform="matrix(1 0 0 1 225.0375 72.3773)" class="st0 st1">A</text>
<text transform="matrix(1 0 0 1 246.2174 72.3773)" class="st0 st1">R</text>
<text transform="matrix(1 0 0 1 266.3474 72.3773)" class="st0 st1">E</text>
<text transform="matrix(1 0 0 1 116.9774 88.5773)" class="st3 st4">Sie</text>
<text transform="matrix(1 0 0 1 142.8374 88.5773)" class="st3 st4">n</text>
<text transform="matrix(1 0 0 1 152.7274 88.5773)" class="st3 st4">a </text>
<text transform="matrix(1 0 0 1 166.9075 88.5773)" class="st3 st4">M</text>
<text transform="matrix(1 0 0 1 181.5974 88.5773)" class="st3 st4">usi</text>
<text transform="matrix(1 0 0 1 205.3374 88.5773)" class="st3 st4">c</text>
<text transform="matrix(1 0 0 1 214.9175 88.5773)" class="st3 st4"> </text>
<text transform="matrix(1 0 0 1 218.6675 88.5773)" class="st3 st4">C</text>
<text transform="matrix(1 0 0 1 231.1974 88.5773)" class="st3 st4">o</text>
<text transform="matrix(1 0 0 1 241.3974 88.5773)" class="st3 st4">n</text>
<text transform="matrix(1 0 0 1 251.1074 88.5773)" class="st3 st4">t</text>
<text transform="matrix(1 0 0 1 257.3474 88.5773)" class="st3 st4">e</text>
<text transform="matrix(1 0 0 1 267.3275 88.5773)" class="st3 st4">s</text>
<text transform="matrix(1 0 0 1 276.5175 88.5773)" class="st3 st4">t</text>
<g>
	<defs>
		<rect id="SVGID_1_" x="-2.9" y="0.6" width="119.8" height="106.7"/>
	</defs>
	<clipPath id="SVGID_00000071519854775051413770000009592570036435429274_">
		<use xlink:href="#SVGID_1_"  style="overflow:visible;"/>
	</clipPath>
	<g style="clip-path:url(#SVGID_00000071519854775051413770000009592570036435429274_);">
		<g>
			<defs>
				<rect id="SVGID_00000052097695476755850700000013040478157932865666_" x="-4" y="-0.5" width="122.1" height="108.8"/>
			</defs>
			<clipPath id="SVGID_00000163052171014063083620000002759187334805374901_">
				<use xlink:href="#SVGID_00000052097695476755850700000013040478157932865666_"  style="overflow:visible;"/>
			</clipPath>
			<g style="clip-path:url(#SVGID_00000163052171014063083620000002759187334805374901_);">
				
					<image style="overflow:visible;enable-background:new    ;" width="531" height="473" xlink:href="69D12C932E03D9C8.png"  transform="matrix(0.23 0 0 0.23 -3.9626 7.292363e-03)">
				</image>
			</g>
		</g>
	</g>
</g>
</svg>
