<svg id="Livello_1" data-name="Livello 1" xmlns="http://www.w3.org/2000/svg" xmlns:xlink="http://www.w3.org/1999/xlink" viewBox="0 0 290.36 109.39"><defs><style>.cls-1{fill:none;}.cls-2,.cls-3,.cls-4,.cls-5,.cls-8{isolation:isolate;}.cls-2,.cls-3,.cls-4{font-size:30px;font-family:Arial-BoldMT, Arial;font-weight:700;}.cls-2{letter-spacing:0.03em;}.cls-4{letter-spacing:-0.04em;}.cls-5{font-size:17px;font-family:ArialMT, Arial;}.cls-6{clip-path:url(#clip-path);}.cls-7{clip-path:url(#clip-path-2);}</style><clipPath id="clip-path"><rect class="cls-1" x="1.1" y="1.1" width="119.8" height="106.7"/></clipPath><clipPath id="clip-path-2"><rect class="cls-1" width="122.1" height="108.8"/></clipPath></defs><text class="cls-2" transform="translate(120.98 46.87)">E</text><text class="cls-3" transform="translate(139.34 46.87)"> </text><text class="cls-2" transform="translate(146 46.87)">TI</text><text class="cls-3" transform="translate(173.6 46.87)"> </text><text class="cls-2" transform="translate(180.26 46.87)">VE</text><text class="cls-2" transform="translate(219.26 46.87)">NG</text><text class="cls-3" transform="translate(264.65 46.87)">O</text><text class="cls-4" transform="translate(120.98 72.88)">A</text><text class="cls-3" transform="translate(141.53 72.88)"> </text><text class="cls-3" transform="translate(148.04 72.88)">C</text><text class="cls-3" transform="translate(170.09 72.88)">E</text><text class="cls-3" transform="translate(188.03 72.88)">R</text><text class="cls-3" transform="translate(207.86 72.88)">C</text><text class="cls-4" transform="translate(229.04 72.88)">A</text><text class="cls-3" transform="translate(250.22 72.88)">R</text><text class="cls-3" transform="translate(270.35 72.88)">E</text><text class="cls-5" transform="translate(120.98 89.08)">Sie</text><text class="cls-5" transform="translate(146.84 89.08)">n</text><text class="cls-5" transform="translate(156.73 89.08)">a </text><text class="cls-5" transform="translate(170.91 89.08)">M</text><text class="cls-5" transform="translate(185.6 89.08)">usi</text><text class="cls-5" transform="translate(209.34 89.08)">c</text><text class="cls-5" transform="translate(218.92 89.08)"> </text><text class="cls-5" transform="translate(222.67 89.08)">C</text><text class="cls-5" transform="translate(235.2 89.08)">o</text><text class="cls-5" transform="translate(245.4 89.08)">n</text><text class="cls-5" transform="translate(255.11 89.08)">t</text><text class="cls-5" transform="translate(261.35 89.08)">e</text><text class="cls-5" transform="translate(271.33 89.08)">s</text><text class="cls-5" transform="translate(280.52 89.08)">t</text><g class="cls-6"><g class="cls-7"><image class="cls-8" width="535" height="478" transform="translate(0.12 0.42) scale(0.23)" xlink:href="DB453E48932A82C8.png"/></g></g></svg>