<svg xmlns="http://www.w3.org/2000/svg" viewBox="0 0 600 600" fill="none" stroke="currentColor" stroke-linecap="round">
<g><line x1="30.21" y1="289.40" x2="30.21" y2="310.60" stroke-width="1.09"/><line x1="30.83" y1="278.82" x2="30.83" y2="321.18" stroke-width="1.19"/><line x1="31.87" y1="268.26" x2="31.87" y2="331.74" stroke-width="1.28"/><line x1="33.32" y1="257.76" x2="33.32" y2="342.24" stroke-width="1.38"/><line x1="35.19" y1="247.33" x2="35.19" y2="352.67" stroke-width="1.47"/><line x1="37.46" y1="236.97" x2="37.46" y2="363.03" stroke-width="1.56"/><line x1="40.14" y1="226.71" x2="40.14" y2="373.29" stroke-width="1.65"/><line x1="43.21" y1="216.57" x2="43.21" y2="383.43" stroke-width="1.74"/><line x1="46.69" y1="206.55" x2="46.69" y2="393.45" stroke-width="1.83"/><line x1="50.55" y1="196.68" x2="50.55" y2="403.32" stroke-width="1.92"/><line x1="54.80" y1="186.96" x2="54.80" y2="413.04" stroke-width="2.00"/><line x1="59.43" y1="177.42" x2="59.43" y2="422.58" stroke-width="2.09"/><line x1="64.43" y1="168.07" x2="64.43" y2="431.93" stroke-width="2.17"/><line x1="69.79" y1="158.93" x2="69.79" y2="441.07" stroke-width="2.25"/><line x1="75.50" y1="150.00" x2="75.50" y2="450.00" stroke-width="2.33"/><line x1="81.57" y1="141.30" x2="81.57" y2="458.70" stroke-width="2.41"/><line x1="87.96" y1="132.84" x2="87.96" y2="467.16" stroke-width="2.49"/><line x1="94.69" y1="124.65" x2="94.69" y2="475.35" stroke-width="2.56"/><line x1="101.73" y1="116.72" x2="101.73" y2="483.28" stroke-width="2.63"/><line x1="109.08" y1="109.08" x2="109.08" y2="490.92" stroke-width="2.70"/><line x1="116.72" y1="101.73" x2="116.72" y2="498.27" stroke-width="2.76"/><line x1="124.65" y1="94.69" x2="124.65" y2="505.31" stroke-width="2.82"/><line x1="132.84" y1="87.96" x2="132.84" y2="512.04" stroke-width="2.88"/><line x1="141.30" y1="81.57" x2="141.30" y2="518.43" stroke-width="2.94"/><line x1="150.00" y1="75.50" x2="150.00" y2="524.50" stroke-width="3.00"/><line x1="158.93" y1="69.79" x2="158.93" y2="530.21" stroke-width="3.05"/><line x1="168.07" y1="64.43" x2="168.07" y2="535.57" stroke-width="3.09"/><line x1="177.42" y1="59.43" x2="177.42" y2="540.57" stroke-width="3.14"/><line x1="186.96" y1="54.80" x2="186.96" y2="545.20" stroke-width="3.18"/><line x1="196.68" y1="50.55" x2="196.68" y2="549.45" stroke-width="3.22"/><line x1="206.55" y1="46.69" x2="206.55" y2="553.31" stroke-width="3.25"/><line x1="216.57" y1="43.21" x2="216.57" y2="556.79" stroke-width="3.28"/><line x1="226.71" y1="40.14" x2="226.71" y2="559.86" stroke-width="3.31"/><line x1="236.97" y1="37.46" x2="236.97" y2="562.54" stroke-width="3.33"/><line x1="247.33" y1="35.19" x2="247.33" y2="564.81" stroke-width="3.35"/><line x1="257.76" y1="33.32" x2="257.76" y2="566.68" stroke-width="3.37"/><line x1="268.26" y1="31.87" x2="268.26" y2="568.13" stroke-width="3.38"/><line x1="278.82" y1="30.83" x2="278.82" y2="569.17" stroke-width="3.39"/><line x1="289.40" y1="30.21" x2="289.40" y2="569.79" stroke-width="3.40"/><line x1="300.00" y1="30.00" x2="300.00" y2="570.00" stroke-width="3.40"/><line x1="310.60" y1="30.21" x2="310.60" y2="569.79" stroke-width="3.40"/><line x1="321.18" y1="30.83" x2="321.18" y2="569.17" stroke-width="3.39"/><line x1="331.74" y1="31.87" x2="331.74" y2="568.13" stroke-width="3.38"/><line x1="342.24" y1="33.32" x2="342.24" y2="566.68" stroke-width="3.37"/><line x1="352.67" y1="35.19" x2="352.67" y2="564.81" stroke-width="3.35"/><line x1="363.03" y1="37.46" x2="363.03" y2="562.54" stroke-width="3.33"/><line x1="373.29" y1="40.14" x2="373.29" y2="559.86" stroke-width="3.31"/><line x1="383.43" y1="43.21" x2="383.43" y2="556.79" stroke-width="3.28"/><line x1="393.45" y1="46.69" x2="393.45" y2="553.31" stroke-width="3.25"/><line x1="403.32" y1="50.55" x2="403.32" y2="549.45" stroke-width="3.22"/><line x1="413.04" y1="54.80" x2="413.04" y2="545.20" stroke-width="3.18"/><line x1="422.58" y1="59.43" x2="422.58" y2="540.57" stroke-width="3.14"/><line x1="431.93" y1="64.43" x2="431.93" y2="535.57" stroke-width="3.09"/><line x1="441.07" y1="69.79" x2="441.07" y2="530.21" stroke-width="3.05"/><line x1="450.00" y1="75.50" x2="450.00" y2="524.50" stroke-width="3.00"/><line x1="458.70" y1="81.57" x2="458.70" y2="518.43" stroke-width="2.94"/><line x1="467.16" y1="87.96" x2="467.16" y2="512.04" stroke-width="2.88"/><line x1="475.35" y1="94.69" x2="475.35" y2="505.31" stroke-width="2.82"/><line x1="483.28" y1="101.73" x2="483.28" y2="498.27" stroke-width="2.76"/><line x1="490.92" y1="109.08" x2="490.92" y2="490.92" stroke-width="2.70"/><line x1="498.27" y1="116.72" x2="498.27" y2="483.28" stroke-width="2.63"/><line x1="505.31" y1="124.65" x2="505.31" y2="475.35" stroke-width="2.56"/><line x1="512.04" y1="132.84" x2="512.04" y2="467.16" stroke-width="2.49"/><line x1="518.43" y1="141.30" x2="518.43" y2="458.70" stroke-width="2.41"/><line x1="524.50" y1="150.00" x2="524.50" y2="450.00" stroke-width="2.33"/><line x1="530.21" y1="158.93" x2="530.21" y2="441.07" stroke-width="2.25"/><line x1="535.57" y1="168.07" x2="535.57" y2="431.93" stroke-width="2.17"/><line x1="540.57" y1="177.42" x2="540.57" y2="422.58" stroke-width="2.09"/><line x1="545.20" y1="186.96" x2="545.20" y2="413.04" stroke-width="2.00"/><line x1="549.45" y1="196.68" x2="549.45" y2="403.32" stroke-width="1.92"/><line x1="553.31" y1="206.55" x2="553.31" y2="393.45" stroke-width="1.83"/><line x1="556.79" y1="216.57" x2="556.79" y2="383.43" stroke-width="1.74"/><line x1="559.86" y1="226.71" x2="559.86" y2="373.29" stroke-width="1.65"/><line x1="562.54" y1="236.97" x2="562.54" y2="363.03" stroke-width="1.56"/><line x1="564.81" y1="247.33" x2="564.81" y2="352.67" stroke-width="1.47"/><line x1="566.68" y1="257.76" x2="566.68" y2="342.24" stroke-width="1.38"/><line x1="568.13" y1="268.26" x2="568.13" y2="331.74" stroke-width="1.28"/><line x1="569.17" y1="278.82" x2="569.17" y2="321.18" stroke-width="1.19"/><line x1="569.79" y1="289.40" x2="569.79" y2="310.60" stroke-width="1.09"/></g>
</svg>